<?xml version="1.0" encoding="UTF-8" standalone="no"?>
<!-- Created with Inkscape (http://www.inkscape.org/) -->

<svg
   width="15.999999"
   height="15.999999"
   viewBox="0 0 4.233333 4.233333"
   version="1.1"
   id="svg1"
   xmlns="http://www.w3.org/2000/svg"
   xmlns:svg="http://www.w3.org/2000/svg">
  <defs
     id="defs1" />
  <g
     id="layer1">
    <path
       style="fill:#f0f8ff;fill-opacity:1;stroke:#e6ffff;stroke-width:0;stroke-dasharray:none;stroke-opacity:0.463483"
       d="M 0,0 V 4.2333333 H 1 V 3.81 H 0.5 V 0.42333333 H 1 V 0 Z"
       id="path1" />
    <path
       style="fill:#f0f8ff;fill-opacity:1;stroke:#e6ffff;stroke-width:0;stroke-dasharray:none;stroke-opacity:0.463483"
       d="M 4.2333333,5.3333332e-8 V 4.2333333 h -1 V 3.81 h 0.5 V 0.42333338 h -0.5 V 5.3333332e-8 Z"
       id="path1-5" />
    <path
       fill="#35d4f4"
       d="M 1.6922033,0.41881353 A 0.63669495,0.63669495 0 0 0 1.0555084,1.0555085 V 2.1166667 H 1.4799717 V 1.6922034 H 1.6922033 V 1.2677402 H 1.4799717 V 1.0555085 A 0.21223165,0.21223165 0 0 1 1.6922033,0.84327678 Z m 0.2122317,0 V 1.4799718 A 0.63669495,0.63669495 0 0 0 2.5411299,2.1166667 V 1.6922034 A 0.21223165,0.21223165 0 0 1 2.3288983,1.4799718 V 0.41881353 Z m 0.6366949,0 V 1.4799718 a 0.63669495,0.63669495 0 0 0 0.636695,0.6366949 V 1.6922034 A 0.21223165,0.21223165 0 0 1 2.9655932,1.4799718 V 1.2677402 H 3.1778249 V 0.84327678 H 2.9655932 V 0.41881353 Z"
       id="path2"
       style="stroke-width:0.212231" />
    <path
       fill="#ffffff"
       fill-opacity="0.4"
       d="M 1.904435,0.41881353 V 1.4799718 A 0.63669495,0.63669495 0 0 0 2.5411299,2.1166667 V 1.6922034 A 0.21223165,0.21223165 0 0 1 2.3288983,1.4799718 V 0.41881353 Z"
       id="path3"
       style="stroke-width:0.212231" />
    <path
       fill="#35d4f4"
       d="M 1.6922033,2.1166667 A 0.63669495,0.63669495 0 0 0 1.0555084,2.7533617 V 3.8145199 H 1.4799717 V 3.3900565 H 1.6922033 V 2.9655933 H 1.4799717 V 2.7533617 A 0.21223165,0.21223165 0 0 1 1.6922033,2.54113 Z m 0.2122317,0 v 1.0611582 a 0.63669495,0.63669495 0 0 0 0.6366949,0.636695 V 3.3900565 A 0.21223165,0.21223165 0 0 1 2.3288983,3.1778249 V 2.1166667 Z m 0.6366949,0 v 1.0611582 a 0.63669495,0.63669495 0 0 0 0.636695,0.636695 V 3.3900565 A 0.21223165,0.21223165 0 0 1 2.9655932,3.1778249 V 2.9655933 H 3.1778249 V 2.54113 H 2.9655932 V 2.1166667 Z"
       id="path2-9"
       style="stroke-width:0.212231" />
    <path
       fill="#ffffff"
       fill-opacity="0.4"
       d="m 1.904435,2.1166667 v 1.0611582 a 0.63669495,0.63669495 0 0 0 0.6366949,0.636695 V 3.3900565 A 0.21223165,0.21223165 0 0 1 2.3288983,3.1778249 V 2.1166667 Z"
       id="path3-0"
       style="stroke-width:0.212231" />
  </g>
</svg>
