<?xml version="1.0" encoding="UTF-8" standalone="no"?>
<!-- Created with Inkscape (http://www.inkscape.org/) -->

<svg
   width="15.999999"
   height="15.999999"
   viewBox="0 0 4.233333 4.233333"
   version="1.1"
   id="svg1"
   xmlns="http://www.w3.org/2000/svg"
   xmlns:svg="http://www.w3.org/2000/svg">
  <defs
     id="defs1" />
  <g
     id="layer1">
    <path
       style="fill:#f0f8ff;fill-opacity:1;stroke:#e6ffff;stroke-width:0;stroke-dasharray:none;stroke-opacity:0.463483"
       d="M 0,0 V 4.2333333 H 1 V 3.81 H 0.5 V 0.42333333 H 1 V 0 Z"
       id="path1" />
    <path
       style="fill:#f0f8ff;fill-opacity:1;stroke:#e6ffff;stroke-width:0;stroke-dasharray:none;stroke-opacity:0.463483"
       d="M 4.2333333,5.3333332e-8 V 4.2333333 h -1 V 3.81 h 0.5 V 0.42333338 h -0.5 V 5.3333332e-8 Z"
       id="path1-5" />
    <path
       fill="#5abbef"
       d="M 1.0583328,0.42333242 V 0.84666598 H 1.4816663 V 0.42333242 Z M 1.4816663,0.84666598 V 1.2699995 H 1.0583328 V 2.1166667 H 1.9049999 V 1.2699995 A 0.21166676,0.21166676 0 0 1 2.1166667,1.4816663 V 2.1166667 H 2.5400002 V 1.4816663 A 0.63500029,0.63500029 0 0 0 1.9049999,0.84666598 Z M 2.5400002,1.4816663 A 0.63500029,0.63500029 0 0 0 3.1750005,2.1166667 V 1.6933331 A 0.21166676,0.21166676 0 0 1 2.9633338,1.4816663 V 1.2699995 H 3.1750005 V 0.84666598 H 2.9633338 V 0.42333242 H 2.5400002 Z"
       id="path2"
       style="stroke-width:0.211667" />
    <path
       fill="#ffffff"
       fill-opacity="0.4"
       d="M 1.4816663,0.84666598 V 2.1166667 H 1.9049999 V 1.2699995 A 0.21166676,0.21166676 0 0 1 2.1166667,1.4816663 V 2.1166667 H 2.5400002 V 1.4816663 A 0.63500029,0.63500029 0 0 0 1.9049999,0.84666598 Z"
       id="path3"
       style="stroke-width:0.211667" />
    <path
       fill="#5abbef"
       d="M 1.0583328,2.1166667 V 2.5400003 H 1.4816663 V 2.1166667 Z M 1.4816663,2.5400003 V 2.9633338 H 1.0583328 V 3.810001 H 1.9049999 V 2.9633338 A 0.21166676,0.21166676 0 0 1 2.1166667,3.1750006 V 3.810001 H 2.5400002 V 3.1750006 A 0.63500029,0.63500029 0 0 0 1.9049999,2.5400003 Z M 2.5400002,3.1750006 A 0.63500029,0.63500029 0 0 0 3.1750005,3.810001 V 3.3866674 A 0.21166676,0.21166676 0 0 1 2.9633338,3.1750006 V 2.9633338 H 3.1750005 V 2.5400003 H 2.9633338 V 2.1166667 H 2.5400002 Z"
       id="path2-6"
       style="stroke-width:0.211667" />
    <path
       fill="#ffffff"
       fill-opacity="0.4"
       d="M 1.4816663,2.5400003 V 3.810001 H 1.9049999 V 2.9633338 A 0.21166676,0.21166676 0 0 1 2.1166667,3.1750006 V 3.810001 H 2.5400002 V 3.1750006 A 0.63500029,0.63500029 0 0 0 1.9049999,2.5400003 Z"
       id="path3-0"
       style="stroke-width:0.211667" />
  </g>
</svg>
